mtllib Roboy.mtl
o Default
v 1 0 -1
v -1 2 -0.9999999403953552
v 1 2 -0.9999999403953552
v -1 0 -1
v -1 0 -1
v -1 2 1
v -1 2 -0.9999999403953552
v -1 0 1
v 1 0 1
v 1 2 -0.9999999403953552
v 1 2 1
v 1 0 -1
v -1 0 1
v 1 2 1
v -1 2 1
v 1 0 1
vt 100 300
vt 100 100
vt 100 400
vt 100 200
vt 0.1666666716337204 0
vt 0.25 1
vt 0.1666666716337204 1
vt 0.25 0
vt 0.3333333432674408 1
vt 0.3333333432674408 0
vn 0 3e-8 -1
vn -1 0 0
vn 1 0 0
vn 0 0 1
vn 0 -1 0
vn 0 1 0
g Scene
usemtl 1
f 1/1/1 2/2/1 3/3/1
f 1/1/1 4/4/1 2/2/1
f 5/5/2 6/6/2 7/7/2
f 5/5/2 8/8/2 6/6/2
f 9/5/3 10/6/3 11/7/3
f 9/5/3 12/8/3 10/6/3
f 13/1/4 14/2/4 15/3/4
f 13/1/4 16/4/4 14/2/4
f 5/8/5 9/9/5 8/6/5
f 5/8/5 12/10/5 9/9/5
f 6/9/6 10/8/6 7/10/6
f 6/9/6 11/6/6 10/8/6
